# File created by Blade
# Date/Time:  Wed Apr 08 17:20:14 2015
#---------------------------------------------------------
:version 1.10
:name HOM
:units
  mass 1.0
  length 1.000000
  angle deg
:documentation
     Acclaim Skeleton File
:root
   axis xyz
   order TX TY TZ RX RY RZ
   position 0.000000 0.000000 0.000000
   orientation 0 0 0
:bonedata
   begin
      id 1
      name Spine_dum
      direction 0.000000 1.000000 0.000000
      length 5.893853
      axis 0.0 0.0 0.0 xyz
   end
   begin
      id 2
      name LeftUpLeg_dum
      direction 1.000000 0.000000 0.000000
      length 3.697939
      axis 0.0 0.0 0.0 xyz
   end
   begin
      id 3
      name RightUpLeg_dum
      direction -1.000000 0.000000 0.000000
      length 3.697939
      axis 0.0 0.0 0.0 xyz
   end
   begin
      id 4
      name Spine
      direction 0.000000 1.000000 0.000000
      length 0.000000
      axis 0.0 0.0 0.0 xyz
      dof rx ry rz
   end
   begin
      id 5
      name Spine_dum1
      direction 0.000000 1.000000 0.000000
      length 16.447146
      axis 0.0 0.0 0.0 xyz
   end
   begin
      id 6
      name Spine_dum2
      direction 0.000000 1.000000 0.000000
      length 10.900383
      axis 0.0 0.0 0.0 xyz
   end
   begin
      id 7
      name Spine_dum3
      direction 0.000000 1.000000 0.000000
      length 10.900383
      axis 0.0 0.0 0.0 xyz
   end
   begin
      id 8
      name Head
      direction 0.000000 1.000000 0.000000
      length 4.527550
      axis 0.0 0.0 0.0 xyz
      dof rx ry rz
   end
   begin
      id 9
      name LeftShoulder
      direction 1.000000 0.000000 0.000000
      length 8.219464
      axis 0.0 0.0 -90.0 xyz
      dof rx ry rz
   end
   begin
      id 10
      name LeftArm
      direction 1.000000 0.000000 0.000000
      length 11.094937
      axis 0.0 0.0 -90.0 xyz
      dof rx ry rz
   end
   begin
      id 11
      name LeftForeArm
      direction 1.000000 0.000000 0.000000
      length 9.103875
      axis 0.0 0.0 -90.0 xyz
      dof ry rz rx
   end
   begin
      id 12
      name LeftHand
      direction 0.000000 0.000000 0.000000
      length 0.000000
      axis 0.0 0.0 -90.0 xyz
      dof rx ry rz
   end
   begin
      id 13
      name LeftHand_dum1
      direction 0.000000 0.000000 0.000000
      length 0.000000
      axis 0.0 0.0 -90.0 xyz
   end
   begin
      id 14
      name LeftHand_dum2
      direction 1.000000 0.000000 0.000000
      length 3.937000
      axis 0.0 0.0 -90.0 xyz
   end
   begin
      id 15
      name LeftHandThumb1
      direction 0.000000 0.000000 1.000000
      length 3.937000
      axis 0.0 0.0 -90.0 xyz
      dof rx rz ry
   end
   begin
      id 16
      name RightShoulder
      direction -1.000000 0.000000 0.000000
      length 8.219464
      axis 0.0 0.0 90.0 xyz
      dof rx ry rz
   end
   begin
      id 17
      name RightArm
      direction -1.000000 0.000000 0.000000
      length 11.094937
      axis 0.0 0.0 90.0 xyz
      dof rx ry rz
   end
   begin
      id 18
      name RightForeArm
      direction -1.000000 0.000000 0.000000
      length 9.103875
      axis 0.0 0.0 90.0 xyz
      dof ry rz rx
   end
   begin
      id 19
      name RightHand
      direction 0.000000 0.000000 0.000000
      length 0.000000
      axis 0.0 0.0 90.0 xyz
      dof rx ry rz
   end
   begin
      id 20
      name RightHand_dum1
      direction 0.000000 0.000000 0.000000
      length 0.000000
      axis 0.0 0.0 90.0 xyz
   end
   begin
      id 21
      name RightHand_dum2
      direction -1.000000 0.000000 0.000000
      length 3.937000
      axis 0.0 0.0 90.0 xyz
   end
   begin
      id 22
      name RightHandThumb1
      direction 0.000000 0.000000 1.000000
      length 3.937000
      axis 0.0 0.0 90.0 xyz
      dof rx rz ry
   end
   begin
      id 23
      name LeftUpLeg
      direction 0.000000 -1.000000 0.000000
      length 16.181467
      axis 0.0 0.0 0.0 xyz
      dof rx ry rz
   end
   begin
      id 24
      name LeftLeg
      direction 0.000000 -1.000000 0.000000
      length 16.501392
      axis 0.0 0.0 0.0 xyz
      dof rx ry rz
   end
   begin
      id 25
      name LeftFoot
      direction 0.000000 -0.258819 0.965926
      length 6.408245
      axis 15.0 0.0 0.0 xyz
      dof rx ry rz
   end
   begin
      id 26
      name LeftToeBase
      direction 0.000000 0.000000 1.000000
      length 2.952750
      axis 0.0 0.0 0.0 xyz
      dof rx ry rz
   end
   begin
      id 27
      name RightUpLeg
      direction 0.000000 -1.000000 0.000000
      length 16.181467
      axis 0.0 0.0 0.0 xyz
      dof rx ry rz
   end
   begin
      id 28
      name RightLeg
      direction 0.000000 -1.000000 0.000000
      length 16.501392
      axis 0.0 0.0 0.0 xyz
      dof rx ry rz
   end
   begin
      id 29
      name RightFoot
      direction 0.000000 -0.258819 0.965926
      length 6.408245
      axis 15.0 0.0 0.0 xyz
      dof rx ry rz
   end
   begin
      id 30
      name RightToeBase
      direction 0.000000 0.000000 1.000000
      length 2.952750
      axis 0.0 0.0 0.0 xyz
      dof rx ry rz
   end
:hierarchy
   begin
      root Spine_dum LeftUpLeg_dum RightUpLeg_dum
      Spine_dum Spine
      LeftUpLeg_dum LeftUpLeg
      RightUpLeg_dum RightUpLeg
      Spine Spine_dum1 Spine_dum2 Spine_dum3
      Spine_dum1 Head
      Spine_dum2 LeftShoulder
      Spine_dum3 RightShoulder
      LeftShoulder LeftArm
      LeftArm LeftForeArm
      LeftForeArm LeftHand
      LeftHand LeftHand_dum1 LeftHand_dum2
      LeftHand_dum1 LeftHandThumb1
      RightShoulder RightArm
      RightArm RightForeArm
      RightForeArm RightHand
      RightHand RightHand_dum1 RightHand_dum2
      RightHand_dum1 RightHandThumb1
      LeftUpLeg LeftLeg
      LeftLeg LeftFoot
      LeftFoot LeftToeBase
      RightUpLeg RightLeg
      RightLeg RightFoot
      RightFoot RightToeBase
   end

# File created by Blade
# Date/Time:  Wed Apr 08 17:19:54 2015
# Frame Rate: 120.000 fps
#------------------------------------------------------
:FULLY-SPECIFIED
:DEGREES
1
root 5.417695 35.974515 -1.096420 -163.258986 -87.320119 156.398287
Spine 12.258134 1.702072 -1.857051
Head 11.021571 7.705077 6.097062
LeftShoulder -5.637813 8.898908 27.828143
LeftArm 12.266000 -41.838151 -39.456969
LeftForeArm 12.067398 -0.000000 1.455519
LeftHand -12.726450 0.000000 -9.756710
LeftHandThumb1 -26.253704 0.000000 33.147579
RightShoulder -23.259704 -38.976605 -10.720126
RightArm 55.953839 47.634599 59.558242
RightForeArm 8.842617 0.000000 -2.466043
RightHand -3.047933 0.000000 6.419919
RightHandThumb1 -24.326973 -0.000000 -32.862282
LeftUpLeg 13.293935 13.792328 8.236083
LeftLeg 5.374501 -0.000000 -0.000000
LeftFoot -10.893001 5.525980 -13.045625
LeftToeBase 7.419636 -0.000000 -0.000000
RightUpLeg 12.840447 -8.960811 -8.836639
RightLeg 2.798319 -0.000000 -0.000000
RightFoot -11.540778 -1.361576 18.150833
RightToeBase 10.447340 -0.000000 -0.000000
2
root 5.421619 35.974242 -1.095342 -163.678278 -87.312926 156.802587
Spine 12.270380 1.686924 -1.847446
Head 11.096803 7.690927 6.119965
LeftShoulder -5.635320 8.891408 27.829273
LeftArm 12.255737 -41.821466 -39.451917
LeftForeArm 12.087234 0.000000 1.467858
LeftHand -12.753893 -0.000000 -9.784107
LeftHandThumb1 -26.253704 0.000000 33.147579
RightShoulder -23.246877 -38.998891 -10.723935
RightArm 56.059430 47.650431 59.657036
RightForeArm 8.804062 -0.000000 -2.465470
RightHand -3.049628 0.000000 6.466997
RightHandThumb1 -24.326973 -0.000000 -32.862282
LeftUpLeg 13.316321 13.796691 8.254322
LeftLeg 5.357447 -0.000000 -0.000000
LeftFoot -10.890667 5.523008 -13.054473
LeftToeBase 7.427695 -0.000000 -0.000000
RightUpLeg 12.829216 -8.968456 -8.826450
RightLeg 2.830789 -0.000000 -0.000000
RightFoot -11.544034 -1.343921 18.148887
RightToeBase 10.446591 -0.000000 -0.000000
3
root 5.426279 35.974294 -1.094309 -164.175480 -87.308977 157.287686
Spine 12.284336 1.679134 -1.827032
Head 11.155930 7.664336 6.142324
LeftShoulder -5.623256 8.882185 27.827525
LeftArm 12.246646 -41.816588 -39.450612
LeftForeArm 12.126554 -0.000000 1.488408
LeftHand -12.760849 -0.000000 -9.805886
LeftHandThumb1 -26.253704 0.000000 33.147579
RightShoulder -23.233114 -38.999898 -10.734329
RightArm 56.110753 47.654505 59.719519
RightForeArm 8.808695 -0.000000 -2.442937
RightHand -3.068133 -0.000000 6.487082
RightHandThumb1 -24.326973 -0.000000 -32.862282
LeftUpLeg 13.331134 13.806256 8.279116
LeftLeg 5.349953 -0.000000 -0.000000
LeftFoot -10.901642 5.508525 -13.050433
LeftToeBase 7.484435 -0.000000 -0.000000
RightUpLeg 12.813468 -8.959033 -8.805504
RightLeg 2.862403 -0.000000 -0.000000
RightFoot -11.539866 -1.352621 18.130440
RightToeBase 10.422245 -0.000000 -0.000000
4
root 5.430858 35.974156 -1.093506 -164.609243 -87.302383 157.707648
Spine 12.299922 1.666160 -1.813346
Head 11.213357 7.636018 6.157312
LeftShoulder -5.626901 8.906313 27.816367
LeftArm 12.281955 -41.814338 -39.463975
LeftForeArm 12.156364 -0.000000 1.497997
LeftHand -12.747917 -0.000000 -9.838887
LeftHandThumb1 -26.253704 0.000000 33.147579
RightShoulder -23.201693 -38.984054 -10.768520
RightArm 56.160301 47.659912 59.813432
RightForeArm 8.772678 -0.000000 -2.418532
RightHand -3.053318 -0.000000 6.505039
RightHandThumb1 -24.326973 -0.000000 -32.862282
LeftUpLeg 13.349470 13.790405 8.293521
LeftLeg 5.340014 -0.000000 -0.000000
LeftFoot -10.919275 5.552837 -13.050867
LeftToeBase 7.496624 -0.000000 -0.000000
RightUpLeg 12.791299 -8.945173 -8.787432
RightLeg 2.911983 -0.000000 -0.000000
RightFoot -11.558195 -1.356012 18.110726
RightToeBase 10.412030 -0.000000 -0.000000
5
root 5.436134 35.974253 -1.093253 -165.223299 -87.299573 158.310454
Spine 12.320060 1.652157 -1.783923
Head 11.257142 7.596524 6.167367
LeftShoulder -5.621978 8.899045 27.805889
LeftArm 12.261574 -41.807152 -39.458085
LeftForeArm 12.146276 -0.000000 1.553210
LeftHand -12.788894 0.000000 -9.859872
LeftHandThumb1 -26.253704 0.000000 33.147579
RightShoulder -23.190515 -38.983573 -10.769716
RightArm 56.202975 47.658603 59.841573
RightForeArm 8.786673 -0.000000 -2.404527
RightHand -3.067238 0.000000 6.505162
RightHandThumb1 -24.326973 -0.000000 -32.862282
LeftUpLeg 13.361314 13.791126 8.321131
LeftLeg 5.326466 -0.000000 -0.000000
LeftFoot -10.915791 5.520925 -13.061026
LeftToeBase 7.487250 -0.000000 -0.000000
RightUpLeg 12.760787 -8.955678 -8.764438
RightLeg 2.971693 -0.000000 -0.000000
RightFoot -11.558576 -1.330949 18.085949
RightToeBase 10.410763 -0.000000 -0.000000
